<svg width="22" height="23" viewBox="0 0 22 23" fill="none" xmlns="http://www.w3.org/2000/svg">
<path d="M19.552 11L19.831 9.34C20.013 8.254 20.104 7.712 19.812 7.356C19.521 7 18.985 7 17.914 7H3.08601C2.01501 7 1.47901 7 1.18801 7.356C0.896006 7.712 0.988006 8.254 1.16901 9.34L2.37301 16.52C2.77201 18.9 2.97101 20.089 3.78601 20.795C4.60001 21.5 5.77401 21.5 8.12201 21.5H10.5M12.5 17.5H20.5M16.5 21.5V13.5M16 7C16 5.54131 15.4205 4.14236 14.3891 3.11091C13.3576 2.07946 11.9587 1.5 10.5 1.5C9.04132 1.5 7.64237 2.07946 6.61092 3.11091C5.57947 4.14236 5.00001 5.54131 5.00001 7" stroke="white" stroke-width="1.5" stroke-linecap="round" stroke-linejoin="round"/>
</svg>
