<svg width="71" height="74" viewBox="0 0 71 74" fill="none" xmlns="http://www.w3.org/2000/svg">
<path d="M66.9649 1.64336C69.4883 8.92189 72.6387 18.2654 64.1964 22.4119C57.9246 25.4924 51.2013 21.1108 46.2394 27.3685C41.147 33.7908 43.0268 42.4626 41.172 49.8488C39.2257 57.5998 30.3376 58.8033 23.4055 58.1751C16.1931 57.5215 11.2255 59.5454 9.355 66.6974C7.34126 74.3971 14.004 65.7817 15.8783 63.5481C17.324 61.8254 15.5036 65.1631 14.597 65.8743C12.4484 67.5595 11.1068 71.2082 9.16111 72.5232C8.63217 72.8807 7.36959 68.9366 7.06062 68.4609C5.17524 65.5584 4.10764 63.5874 1.38091 61.2992" stroke="#FAE6E0" stroke-width="1.61008" stroke-linecap="round"/>
</svg>
