<svg width="117" height="112" viewBox="0 0 117 112" fill="none" xmlns="http://www.w3.org/2000/svg">
<path d="M0.999967 52.5419C7.00294 58.5809 23.9356 76.0039 34.6321 69.1141C39.0829 66.2473 43.5261 59.7367 43.6897 54.1163C44.0412 42.0467 26.8291 34.7421 27.2954 50.6982C27.5569 59.6467 37.0276 65.9254 43.7927 70.2796C53.7648 76.6981 63.7768 75.9894 74.7059 73.7974C80.2562 72.6842 104.558 61.6687 103.01 60.8327" stroke="#FAE6E0" stroke-width="2" stroke-linecap="round"/>
<path d="M112.498 57.9781C110.877 57.1735 98.2807 51.4119 99.9049 51.914C102.031 52.5713 104.161 53.4692 106.348 53.858C108.937 54.3179 111.384 55.4256 113.997 55.5956C116.29 55.7448 108.439 64.8134 106.731 66.0348" stroke="#FAE6E0" stroke-width="2" stroke-linecap="round"/>
</svg>
