<svg width="116" height="33" viewBox="0 0 116 33" fill="none" xmlns="http://www.w3.org/2000/svg">
<path d="M1.2658 18.2127C6.03256 9.91532 12.224 -0.652793 22.9915 3.88201C30.9908 7.25097 32.3626 17.1247 42.2726 16.6762C52.4435 16.2159 59.0408 7.38648 67.4767 3.10552C76.3289 -1.38678 84.7009 5.96451 89.7615 12.9749C95.0267 20.2688 100.973 23.2763 109.202 19.201C118.061 14.8136 104.554 15.5891 100.933 15.6523C98.1397 15.7011 102.752 14.6873 104.158 14.9577C107.489 15.5984 112.003 13.8825 114.821 14.6348C115.587 14.8393 112.919 19.2373 112.725 19.9146C111.54 24.0476 110.563 26.6547 110.64 31.0757" stroke="#FAE6E0" stroke-width="2" stroke-linecap="round"/>
</svg>
