<svg width="105" height="75" viewBox="0 0 105 75" fill="none" xmlns="http://www.w3.org/2000/svg">
<path d="M103.199 12.3615C83.0506 4.17864 61.3424 -2.14368 39.9474 4.8876C34.0168 6.83662 24.7065 11.9075 23.5853 18.9774C22.6109 25.1215 27.157 32.6391 30.8434 37.1007C34.4467 41.4617 39.7785 45.3301 45.5161 45.7563C48.1195 45.9496 50.8144 45.0404 49.8315 42.1257C47.225 34.3962 35.0002 33.633 29.9395 38.971C22.402 46.9217 20.1579 59.7585 11.2316 66.2411C10.2085 66.9841 5.26171 71.6962 3.78496 69.6628C2.26137 67.5649 4.69021 63.7238 4.79486 61.4807C4.95484 58.0516 3.39082 68.2528 2.00804 71.3947C0.917164 73.8733 0.366684 73.6988 3.61217 72.7678C6.94117 71.8128 12.3305 71.0889 15.3035 73.2155" stroke="#FAE6E0" stroke-width="2.11427" stroke-linecap="round"/>
</svg>
