<svg width="21" height="21" viewBox="0 0 21 21" fill="none" xmlns="http://www.w3.org/2000/svg">
<path d="M18.91 11.958C18.91 13.0189 18.4886 14.0363 17.7384 14.7865C16.9883 15.5366 15.9709 15.958 14.91 15.958H10.542L6.022 20.118C5.95054 20.1839 5.86142 20.2276 5.76554 20.2436C5.66966 20.2597 5.57118 20.2474 5.48216 20.2084C5.39313 20.1693 5.31742 20.1052 5.26429 20.0238C5.21115 19.9424 5.18291 19.8472 5.183 19.75V15.958H5.09C4.02913 15.958 3.01171 15.5366 2.26157 14.7865C1.51142 14.0363 1.09 13.0189 1.09 11.958V5.74902C1.09 4.68816 1.51142 3.67074 2.26157 2.9206C3.01171 2.17045 4.02913 1.74902 5.09 1.74902H9.251" stroke="#C41818" stroke-width="1.5" stroke-linecap="round" stroke-linejoin="round"/>
<path fill-rule="evenodd" clip-rule="evenodd" d="M15.5 11C16.2223 11 16.9375 10.8577 17.6048 10.5813C18.272 10.3049 18.8784 9.89981 19.3891 9.38909C19.8998 8.87837 20.3049 8.27205 20.5813 7.60476C20.8577 6.93747 21 6.22227 21 5.5C21 4.77773 20.8577 4.06253 20.5813 3.39524C20.3049 2.72795 19.8998 2.12163 19.3891 1.61091C18.8784 1.10019 18.272 0.695063 17.6048 0.418663C16.9375 0.142262 16.2223 -1.07627e-08 15.5 0C14.0413 2.17362e-08 12.6424 0.579463 11.6109 1.61091C10.5795 2.64236 10 4.04131 10 5.5C10 6.95869 10.5795 8.35764 11.6109 9.38909C12.6424 10.4205 14.0413 11 15.5 11ZM15.5 2.007C15.6326 2.007 15.7598 2.05968 15.8536 2.15345C15.9473 2.24721 16 2.37439 16 2.507V5H18.493C18.6256 5 18.7528 5.05268 18.8466 5.14645C18.9403 5.24021 18.993 5.36739 18.993 5.5C18.993 5.63261 18.9403 5.75979 18.8466 5.85355C18.7528 5.94732 18.6256 6 18.493 6H16V8.493C16 8.62561 15.9473 8.75279 15.8536 8.84655C15.7598 8.94032 15.6326 8.993 15.5 8.993C15.3674 8.993 15.2402 8.94032 15.1464 8.84655C15.0527 8.75279 15 8.62561 15 8.493V6H12.507C12.3744 6 12.2472 5.94732 12.1534 5.85355C12.0597 5.75979 12.007 5.63261 12.007 5.5C12.007 5.36739 12.0597 5.24021 12.1534 5.14645C12.2472 5.05268 12.3744 5 12.507 5H15V2.507C15 2.37439 15.0527 2.24721 15.1464 2.15345C15.2402 2.05968 15.3674 2.007 15.5 2.007Z" fill="#C41818"/>
</svg>
