<svg width="19" height="19" viewBox="0 0 19 19" fill="none" xmlns="http://www.w3.org/2000/svg">
<path d="M17.9968 5.605C18.0272 5.7152 17.9888 5.8368 17.9246 5.9318L15.8764 8.9794C15.8004 9.0972 15.6408 9.1618 15.5074 9.1618C15.4694 9.1618 15.363 9.1542 15.3216 9.1428L13.68 8.74V15.96C13.68 16.1804 13.5242 16.34 13.3 16.34H5.32C5.0958 16.34 4.94 16.1804 4.94 15.96V8.74L3.4656 9.1466C3.2946 9.1998 3.1464 9.1314 3.0514 8.9832L1.0184 5.9432C0.953801 5.8444 0.934801 5.7342 0.965201 5.624C0.991801 5.51 1.0716 5.434 1.1742 5.3808L5.32 3.42H7.22C7.4442 3.42 7.6 3.5758 7.6 3.8C7.6 4.5828 8.6982 5.1376 9.481 5.1376C10.2638 5.1376 11.4 4.5866 11.4 3.8C11.4 3.5796 11.5558 3.42 11.78 3.42H13.68L17.784 5.3428C17.8904 5.396 17.9664 5.491 17.9968 5.605Z" fill="#A44A50"/>
</svg>
