<svg width="19" height="19" viewBox="0 0 19 19" fill="none" xmlns="http://www.w3.org/2000/svg">
<path fill-rule="evenodd" clip-rule="evenodd" d="M1.78125 9.40501C1.77333 9.54513 1.79312 9.71376 1.8327 10.0526L2.15016 12.7664C2.27453 13.8292 2.78481 14.8092 3.58413 15.5205C4.38344 16.2319 5.41613 16.6249 6.48612 16.625H9.3472C10.1879 16.6245 11.0105 16.3814 11.7166 15.9251C12.4226 15.4687 12.982 14.8184 13.3277 14.0521H15.0417C15.829 14.0521 16.5841 13.7393 17.1409 13.1826C17.6976 12.6258 18.0104 11.8707 18.0104 11.0833C18.0104 10.296 17.6976 9.54087 17.1409 8.98412C16.5841 8.42737 15.829 8.11459 15.0417 8.11459H13.2375C13.0851 8.03 12.9198 7.97116 12.7482 7.94042C12.6105 7.91667 12.4395 7.91667 12.099 7.91667H3.73429C3.39387 7.91667 3.22366 7.91667 3.08591 7.94042C2.73579 8.00274 2.41684 8.18111 2.18045 8.44679C1.94406 8.71248 1.804 9.05001 1.78283 9.40501M14.0434 9.30209C14.0476 9.3364 14.0508 9.3707 14.0529 9.40501C14.0608 9.54513 14.0418 9.71376 14.0022 10.0526L13.6847 12.7664L13.6721 12.8646H15.0417C15.5141 12.8646 15.9671 12.6769 16.3012 12.3429C16.6352 12.0088 16.8229 11.5558 16.8229 11.0833C16.8229 10.6109 16.6352 10.1579 16.3012 9.82381C15.9671 9.48976 15.5141 9.30209 15.0417 9.30209H14.0434ZM8.33625 1.16376C8.44744 1.27508 8.50989 1.426 8.50989 1.58334C8.50989 1.74068 8.44744 1.89159 8.33625 2.00292C8.23782 2.10174 8.18255 2.23553 8.18255 2.37501C8.18255 2.51448 8.23782 2.64827 8.33625 2.74709C8.65744 3.06836 8.83788 3.50405 8.83788 3.95834C8.83788 4.41263 8.65744 4.84832 8.33625 5.16959C8.22369 5.27447 8.07482 5.33157 7.921 5.32885C7.76718 5.32614 7.62041 5.26383 7.51163 5.15504C7.40284 5.04626 7.34053 4.89949 7.33782 4.74567C7.3351 4.59185 7.3922 4.44298 7.49708 4.33042C7.70291 4.12459 7.70291 3.79209 7.49708 3.58626C7.17589 3.26499 6.99545 2.8293 6.99545 2.37501C6.99545 1.92072 7.17589 1.48503 7.49708 1.16376C7.60841 1.05257 7.75932 0.990112 7.91666 0.990112C8.07401 0.990112 8.22492 1.05257 8.33625 1.16376ZM4.77375 2.35126C4.88494 2.46258 4.94739 2.6135 4.94739 2.77084C4.94739 2.92818 4.88494 3.07909 4.77375 3.19042L4.68191 3.28226C4.58851 3.37534 4.53193 3.49907 4.52261 3.63061C4.5133 3.76214 4.55189 3.89261 4.63125 3.99792C4.8819 4.33194 5.00358 4.7452 4.97391 5.16175C4.94424 5.5783 4.76522 5.97014 4.46975 6.26526L4.37791 6.35709C4.26536 6.46197 4.11649 6.51907 3.96267 6.51635C3.80884 6.51364 3.66208 6.45133 3.5533 6.34254C3.44451 6.23376 3.3822 6.08699 3.37948 5.93317C3.37677 5.77935 3.43387 5.63048 3.53875 5.51792L3.63058 5.42609C3.72398 5.33301 3.78057 5.20928 3.78988 5.07774C3.79919 4.9462 3.76061 4.81574 3.68125 4.71042C3.43059 4.37641 3.30891 3.96315 3.33858 3.5466C3.36825 3.13005 3.54728 2.7382 3.84275 2.44309L3.93458 2.35126C4.04591 2.24007 4.19682 2.17761 4.35416 2.17761C4.51151 2.17761 4.66242 2.24007 4.77375 2.35126ZM12.2946 2.35126C12.4058 2.46258 12.4682 2.6135 12.4682 2.77084C12.4682 2.92818 12.4058 3.07909 12.2946 3.19042L12.2027 3.28226C12.1093 3.37534 12.0528 3.49907 12.0434 3.63061C12.0341 3.76214 12.0727 3.89261 12.1521 3.99792C12.4027 4.33194 12.5244 4.7452 12.4947 5.16175C12.4651 5.5783 12.286 5.97014 11.9906 6.26526L11.8987 6.35709C11.8444 6.41543 11.7788 6.46221 11.706 6.49467C11.6332 6.52712 11.5545 6.54457 11.4748 6.54598C11.3951 6.54738 11.3159 6.53272 11.242 6.50285C11.168 6.47299 11.1009 6.42854 11.0445 6.37216C10.9881 6.31578 10.9437 6.24862 10.9138 6.17469C10.884 6.10076 10.8693 6.02157 10.8707 5.94184C10.8721 5.86212 10.8896 5.7835 10.922 5.71066C10.9545 5.63783 11.0012 5.57228 11.0596 5.51792L11.1514 5.42609C11.2448 5.33301 11.3014 5.20928 11.3107 5.07774C11.32 4.9462 11.2814 4.81574 11.2021 4.71042C10.9514 4.37641 10.8297 3.96315 10.8594 3.5466C10.8891 3.13005 11.0681 2.7382 11.3636 2.44309L11.4554 2.35126C11.5667 2.24007 11.7177 2.17761 11.875 2.17761C12.0323 2.17761 12.1833 2.24007 12.2946 2.35126Z" fill="#A44A50"/>
</svg>
