<svg width="19" height="19" viewBox="0 0 19 19" fill="none" xmlns="http://www.w3.org/2000/svg">
<path d="M12.825 2.77083C12.0333 1.97916 11.0042 1.58333 10.0541 1.58333C9.10415 1.58333 7.99582 1.97916 7.28332 2.77083L2.69165 7.20416C1.10832 8.7875 1.10832 11.2417 2.69165 12.825C4.27498 14.4083 6.72915 14.4083 8.31248 12.825L12.825 8.3125C14.3292 6.80833 14.3292 4.27499 12.825 2.77083ZM11.7167 7.20416L9.49998 9.42083L6.64998 6.64999L3.16665 10.1333C3.16665 9.5 3.32498 8.7875 3.87915 8.3125L8.39165 3.8C8.78748 3.40416 9.42082 3.16666 9.97498 3.16666C10.5292 3.16666 11.1625 3.40416 11.6375 3.8C12.5875 4.82916 12.5875 6.25416 11.7167 7.20416ZM15.5167 5.62083C15.5167 6.25416 15.3583 6.80833 15.2 7.44166C15.9917 8.39166 15.9917 9.81666 15.1208 10.6875L12.9042 12.9042L11.7167 11.7167L9.49998 13.9333C8.47082 14.9625 7.04582 15.5167 5.69998 15.5167C5.85832 15.7542 6.01665 15.9917 6.25415 16.2292C7.83748 17.8125 10.2917 17.8125 11.875 16.2292L16.3875 11.7167C17.9708 10.1333 17.9708 7.67916 16.3875 6.09583C15.9917 5.93749 15.7542 5.77916 15.5167 5.62083Z" fill="#A44A50"/>
</svg>
