<svg width="19" height="19" viewBox="0 0 19 19" fill="none" xmlns="http://www.w3.org/2000/svg">
<path d="M17.4167 7.125C16.8023 7.14117 16.195 6.99071 15.6592 6.68958C15.231 6.44385 14.7435 6.32061 14.25 6.33333V5.54166C14.8644 5.52548 15.4717 5.67595 16.0075 5.97708C16.4357 6.22281 16.9232 6.34605 17.4167 6.33333M17.4167 4.75C16.9232 4.76272 16.4357 4.63947 16.0075 4.39375C15.4717 4.09261 14.8644 3.94215 14.25 3.95833V4.75C14.7435 4.73727 15.231 4.86052 15.6592 5.10625C16.195 5.40738 16.8023 5.55784 17.4167 5.54166M17.4167 7.91666C16.9232 7.92938 16.4357 7.80614 16.0075 7.56041C15.4717 7.25928 14.8644 7.10882 14.25 7.125V7.91666C14.7435 7.90394 15.231 8.02718 15.6592 8.27291C16.195 8.57405 16.8023 8.72451 17.4167 8.70833M7.91667 10.0779C9.78619 9.71689 11.6359 9.25976 13.4583 8.70833V3.16666C13.4583 3.16666 8.3125 1.58333 5.9375 1.58333C4.88023 1.5863 3.86016 1.97387 3.06765 2.67371C2.27514 3.37354 1.76434 4.33782 1.63058 5.3866C1.49682 6.43539 1.74923 7.49701 2.34071 8.37336C2.93219 9.24971 3.82232 9.88091 4.845 10.1492L5.54167 15.0417H6.33334C6.36499 15.419 6.48642 15.7833 6.68748 16.1042C6.88854 16.425 7.16341 16.6932 7.48917 16.8862C7.85645 17.1046 8.16146 17.4137 8.37495 17.7838C8.58844 18.154 8.70324 18.5727 8.70834 19H9.5C9.49641 18.4546 9.35611 17.9189 9.09195 17.4417C8.8278 16.9646 8.44821 16.5613 7.98792 16.2687C7.43375 15.8333 7.125 15.5404 7.125 15.0417H7.91667M5.9375 7.91666C5.54606 7.91666 5.16341 7.80059 4.83794 7.58311C4.51246 7.36564 4.25879 7.05654 4.10899 6.69489C3.95919 6.33324 3.92 5.9353 3.99636 5.55138C4.07273 5.16746 4.26123 4.8148 4.53802 4.53801C4.81481 4.26122 5.16747 4.07272 5.55139 3.99636C5.93531 3.91999 6.33325 3.95918 6.6949 4.10898C7.05654 4.25878 7.36565 4.51246 7.58312 4.83793C7.80059 5.1634 7.91667 5.54605 7.91667 5.9375C7.91667 6.4624 7.70815 6.96581 7.33698 7.33698C6.96582 7.70814 6.46241 7.91666 5.9375 7.91666Z" fill="#A44A50"/>
</svg>
