<svg width="17" height="17" viewBox="0 0 17 17" fill="none" xmlns="http://www.w3.org/2000/svg">
<g clip-path="url(#clip0_20_686)">
<path d="M11.9542 0.0722463C12.0582 0.132531 12.1386 0.226298 12.1825 0.33823C12.2263 0.450162 12.2308 0.573641 12.1954 0.688496L10.2818 6.90625H13.8125C13.9163 6.9062 14.0178 6.93655 14.1045 6.99353C14.1912 7.05051 14.2593 7.13164 14.3004 7.2269C14.3416 7.32216 14.3539 7.42737 14.3359 7.52956C14.3179 7.63175 14.2704 7.72644 14.1993 7.80193L5.69925 16.8332C5.617 16.9206 5.50756 16.9777 5.38876 16.995C5.26996 17.0122 5.1488 16.9888 5.04504 16.9284C4.94127 16.868 4.86102 16.7743 4.81736 16.6624C4.77371 16.5506 4.76922 16.4273 4.80462 16.3126L6.71819 10.0937H3.1875C3.08374 10.0938 2.98224 10.0634 2.89553 10.0065C2.80882 9.94948 2.74069 9.86835 2.69956 9.77309C2.65843 9.67783 2.64609 9.57261 2.66408 9.47043C2.68206 9.36824 2.72957 9.27355 2.80075 9.19806L11.3007 0.166809C11.3829 0.0794704 11.4922 0.022488 11.6108 0.00512666C11.7294 -0.0122346 11.8505 0.0110462 11.9542 0.0711838V0.0722463Z" fill="#A44A50"/>
</g>
<defs>
<clipPath id="clip0_20_686">
<rect width="17" height="17" fill="white"/>
</clipPath>
</defs>
</svg>
