<svg width="19" height="19" viewBox="0 0 19 19" fill="none" xmlns="http://www.w3.org/2000/svg">
<path d="M13.0625 11.875H13.015C13.6895 11.875 14.25 12.4224 14.25 13.11V14.25H14.5724C15.0456 14.25 15.4375 14.6478 15.4375 15.1287V17.8125H4.15625V15.1287C4.15625 14.6478 4.54812 14.25 5.02134 14.25H5.34375V13.11C5.34375 12.4355 5.89119 11.875 6.57875 11.875H6.53125V2.54718C6.52353 2.10306 6.65297 1.73256 6.935 1.48793C7.00348 1.42856 7.07869 1.37789 7.16063 1.33593C7.37915 1.19776 7.6324 1.12446 7.89094 1.12456C9.05113 1.12456 10.2374 1.88396 11.1809 2.89987C11.2438 2.96083 11.3062 3.02337 11.3679 3.08749C12.5133 4.27381 13.132 5.61806 13.056 6.55618C13.0603 6.61556 13.0625 6.67335 13.0625 6.72956V11.875ZM6.53125 14.25H13.0625V13.11C13.0623 13.0975 13.0572 13.0855 13.0483 13.0767C13.0395 13.0678 13.0275 13.0627 13.015 13.0625H6.57875C6.56622 13.0627 6.55427 13.0678 6.5455 13.0767C6.53655 13.0855 6.53143 13.0975 6.53125 13.11V14.25ZM10.5135 3.91221C9.82478 3.19853 9.08259 2.72471 8.48053 2.5074C8.02453 2.34293 7.80484 2.37024 7.73003 2.38806C7.71222 2.45574 7.69441 2.62912 7.80009 2.983C7.96753 3.54528 8.39028 4.27915 9.08022 4.99403C9.76897 5.70771 10.5112 6.18153 11.1132 6.39884C11.5692 6.56331 11.7889 6.536 11.8637 6.51818C11.8815 6.45049 11.8993 6.27712 11.7937 5.92324C11.6262 5.36096 11.2035 4.62709 10.5135 3.91221Z" fill="#A44A50"/>
</svg>
