<svg width="19" height="19" viewBox="0 0 19 19" fill="none" xmlns="http://www.w3.org/2000/svg">
<path opacity="0.4" fill-rule="evenodd" clip-rule="evenodd" d="M5.54166 4.55208H5.62636C5.70316 4.55288 5.79261 4.55367 5.86861 4.55208C5.97866 4.54813 6.12749 4.53783 6.27711 4.49192C6.43703 4.44204 6.62307 4.34308 6.75845 4.14754C6.88986 3.95913 6.92707 3.74775 6.92707 3.5625C6.92707 3.37725 6.88986 3.16588 6.75845 2.97667C6.64094 2.81119 6.47109 2.69014 6.27632 2.63308C6.14333 2.59555 6.006 2.57559 5.86782 2.57371C5.75912 2.57091 5.65036 2.57091 5.54166 2.57371V4.55208Z" fill="#A44A50"/>
<g opacity="0.5">
<path d="M1.69972 10.3384C1.62186 10.7123 1.58286 11.0933 1.58335 11.4752C1.58335 12.9913 2.18976 14.3743 3.18885 15.4233C3.5451 15.7977 3.72322 15.9845 4.46976 16.3052C5.2171 16.625 5.73168 16.625 6.76243 16.625H9.07093C10.1017 16.625 10.6163 16.625 11.3636 16.3052C12.1101 15.9845 12.2883 15.7977 12.6453 15.4233C13.6428 14.3743 14.25 12.9913 14.25 11.4752C14.25 11.3702 14.2474 11.2659 14.2421 11.1625C13.7687 10.9123 12.9754 10.678 12.1236 10.5418C9.69318 10.1531 8.41226 12.1157 5.96443 11.8505C4.21089 11.6605 2.84843 10.807 1.69972 10.3384Z" fill="#A44A50"/>
<path d="M5.96445 11.8505C8.41228 12.1157 9.6932 10.1531 12.1236 10.5418C12.9747 10.678 13.7687 10.9123 14.2413 11.1625C14.0679 8.03067 11.3027 5.54167 7.9167 5.54167C4.83395 5.54167 2.26578 7.60476 1.69974 10.3384C2.84765 10.807 4.2109 11.6605 5.96445 11.8505Z" fill="#A44A50"/>
</g>
<path d="M10.2917 5.97312V3.95833C10.2917 2.83891 10.2917 2.2792 9.94335 1.93166C9.5966 1.58333 9.03689 1.58333 7.91668 1.58333C6.79647 1.58333 6.23756 1.58333 5.89001 1.93166C5.73089 2.08999 5.6446 2.29266 5.5971 2.57291H5.62718C5.70318 2.57212 5.79264 2.57133 5.86785 2.5737C5.97868 2.57687 6.12751 2.58716 6.27635 2.63308C6.43706 2.68295 6.6231 2.78191 6.75926 2.97745C6.88989 3.16587 6.9271 3.37724 6.9271 3.56249C6.9271 3.74775 6.88989 3.95912 6.75847 4.14833C6.64117 4.31366 6.47162 4.43469 6.27714 4.49191C6.14415 4.52944 6.00681 4.54941 5.86864 4.55129C5.79264 4.55366 5.70239 4.55287 5.62639 4.55287H5.54168V5.97312C6.30087 5.68732 7.10548 5.54115 7.91668 5.54166C8.75585 5.54166 9.5586 5.69445 10.2917 5.97312ZM1.69972 10.3384C1.62186 10.7123 1.58286 11.0933 1.58335 11.4752C1.58335 12.9912 2.18976 14.3743 3.18885 15.4232C3.5451 15.7977 3.72322 15.9845 4.46976 16.3052C5.2171 16.625 5.73168 16.625 6.76243 16.625H9.07093C10.1017 16.625 10.6163 16.625 11.3636 16.3052C12.1101 15.9845 12.2883 15.7977 12.6453 15.4232C13.6428 14.3743 14.25 12.9912 14.25 11.4752C14.25 11.3702 14.2474 11.2659 14.2421 11.1625C13.7687 10.9123 12.9754 10.678 12.1236 10.5418C9.69318 10.1531 8.41226 12.1157 5.96443 11.8505C4.21089 11.6605 2.84843 10.807 1.69972 10.3384ZM16.2672 4.25758C17.2591 4.76979 17.6922 5.75937 17.2338 6.46791C16.7754 7.17725 15.5998 7.33716 14.6078 6.82574C13.6159 6.31433 13.1828 5.32395 13.6412 4.61541C14.0996 3.90608 15.2752 3.74616 16.2672 4.25758Z" fill="#A44A50"/>
<path opacity="0.5" d="M10.2917 4.55208H11.3367C11.8592 4.55208 12.3737 4.67399 12.8408 4.90754L13.4583 5.21629C13.4619 5.0027 13.5249 4.79433 13.6404 4.61462C13.7512 4.44441 13.9024 4.30587 14.0837 4.20058L13.372 3.84512C12.7401 3.52915 12.0432 3.36463 11.3367 3.36458H10.2917V4.55208Z" fill="#A44A50"/>
</svg>
