<svg width="19" height="19" viewBox="0 0 19 19" fill="none" xmlns="http://www.w3.org/2000/svg">
<path d="M8.90625 1.58333C5.56621 1.58649 3.83879 1.64666 2.74234 2.74233C1.64667 3.83958 1.5865 5.5662 1.58334 8.90625H5.47359C5.1892 8.55079 4.98479 8.13819 4.87429 7.69658C4.44917 5.99291 5.99292 4.44916 7.69659 4.87429C8.14942 4.98749 8.5595 5.1957 8.90625 5.47358V1.58333ZM1.58334 10.0937C1.5865 13.433 1.64667 15.1604 2.74234 16.2569C3.83959 17.3533 5.56621 17.4127 8.90625 17.4167V11.1807C8.59399 11.8057 8.11379 12.3313 7.5195 12.6987C6.9252 13.066 6.24033 13.2605 5.54167 13.2604C5.3842 13.2604 5.23317 13.1979 5.12182 13.0865C5.01047 12.9752 4.94792 12.8241 4.94792 12.6667C4.94792 12.5092 5.01047 12.3582 5.12182 12.2468C5.23317 12.1355 5.3842 12.0729 5.54167 12.0729C6.12091 12.073 6.68324 11.8777 7.13767 11.5185C7.5921 11.1594 7.91204 10.6573 8.04571 10.0937H1.58334ZM10.0938 17.4167C13.433 17.4127 15.1604 17.3533 16.2569 16.2569C17.3533 15.1612 17.4127 13.433 17.4167 10.0937H10.9543C11.088 10.6573 11.4079 11.1594 11.8623 11.5185C12.3168 11.8777 12.8791 12.073 13.4583 12.0729C13.6158 12.0729 13.7668 12.1355 13.8782 12.2468C13.9895 12.3582 14.0521 12.5092 14.0521 12.6667C14.0521 12.8241 13.9895 12.9752 13.8782 13.0865C13.7668 13.1979 13.6158 13.2604 13.4583 13.2604C12.7597 13.2605 12.0748 13.066 11.4805 12.6987C10.8862 12.3313 10.406 11.8057 10.0938 11.1807V17.4167ZM17.4167 8.90625C17.4127 5.5662 17.3533 3.83879 16.2569 2.74233C15.1612 1.64666 13.433 1.58649 10.0938 1.58333V5.47358C10.449 5.18929 10.8613 4.98489 11.3026 4.87429C13.0071 4.44837 14.5516 5.99212 14.1249 7.69658C14.0147 8.13812 13.8105 8.55071 13.5264 8.90625H17.4167Z" fill="#A44A50"/>
<path d="M7.40841 6.02696C7.83593 6.13415 8.21544 6.38098 8.48677 6.72832C8.7581 7.07565 8.90573 7.50362 8.90625 7.94438V8.90625H7.94437C7.50362 8.90573 7.07565 8.75811 6.72831 8.48678C6.38098 8.21545 6.13415 7.83594 6.02695 7.40842C5.97949 7.2176 5.98219 7.01775 6.0348 6.82829C6.0874 6.63883 6.18811 6.46619 6.32715 6.32715C6.46618 6.18811 6.63882 6.0874 6.82829 6.0348C7.01775 5.9822 7.2176 5.9795 7.40841 6.02696ZM10.0937 7.94438V8.90625H11.0556C11.9621 8.90625 12.753 8.28875 12.973 7.40842C13.0206 7.21752 13.0179 7.01758 12.9652 6.82803C12.9126 6.63848 12.8118 6.46577 12.6727 6.32671C12.5335 6.18765 12.3608 6.08696 12.1712 6.03443C11.9816 5.9819 11.7817 5.97933 11.5908 6.02696C11.1634 6.1343 10.7841 6.38119 10.5129 6.72852C10.2417 7.07584 10.0942 7.50373 10.0937 7.94438Z" fill="#A44A50"/>
</svg>
